HIERARCHY
ROOT Hips
{
	OFFSET -0.001795 -0.223333 0.028219
	CHANNELS 6 Xposition Yposition Zposition Zrotation Yrotation Xrotation 
	JOINT LeftUpLeg
	{
		OFFSET 0.069520 -0.091406 -0.006815
		CHANNELS 3 Zrotation Yrotation Xrotation
		JOINT LeftLeg
		{
			OFFSET 0.034277 -0.375199 -0.004496
			CHANNELS 3 Zrotation Yrotation Xrotation
			JOINT LeftFoot
			{
				OFFSET -0.013596 -0.397961 -0.043693
				CHANNELS 3 Zrotation Yrotation Xrotation
				JOINT LeftToe
				{
					OFFSET 0.026358 -0.055791 0.119288
					CHANNELS 3 Zrotation Yrotation Xrotation
					End Site
					{
						OFFSET 0.000000 0.000000 0.000000
					}
				}
			}
		}
	}
	JOINT RightUpLeg
	{
		OFFSET -0.067670 -0.090522 -0.004320
		CHANNELS 3 Zrotation Yrotation Xrotation
		JOINT RightLeg
		{
			OFFSET -0.038290 -0.382569 -0.008850
			CHANNELS 3 Zrotation Yrotation Xrotation
			JOINT RightFoot
			{
				OFFSET 0.015774 -0.398415 -0.042312
				CHANNELS 3 Zrotation Yrotation Xrotation
				JOINT RightToe
				{
					OFFSET -0.025372 -0.048144 0.123348
					CHANNELS 3 Zrotation Yrotation Xrotation
					End Site
					{
						OFFSET 0.000000 0.000000 0.000000
					}
				}
			}
		}
	}
	JOINT Spine
	{
		OFFSET -0.002533 0.108963 -0.026696
		CHANNELS 3 Zrotation Yrotation Xrotation
		JOINT Spine1
		{
			OFFSET 0.005487 0.135180 0.001092
			CHANNELS 3 Zrotation Yrotation Xrotation
			JOINT Spine2
			{
				OFFSET 0.001457 0.052922 0.025425
				CHANNELS 3 Zrotation Yrotation Xrotation
				JOINT Neck
				{
					OFFSET -0.002778 0.213870 -0.042857
					CHANNELS 3 Zrotation Yrotation Xrotation
					JOINT Head
					{
						OFFSET 0.005152 0.064970 0.051349
						CHANNELS 3 Zrotation Yrotation Xrotation
						End Site
						{
							OFFSET 0.000000 0.000000 0.000000
						}
					}
				}
				JOINT LeftShoulder
				{
					OFFSET 0.078845 0.121749 -0.034090
					CHANNELS 3 Zrotation Yrotation Xrotation
					JOINT LeftArm
					{
						OFFSET 0.090977 0.030469 -0.008868
						CHANNELS 3 Zrotation Yrotation Xrotation
						JOINT LeftForeArm
						{
							OFFSET 0.259612 -0.012772 -0.027456
							CHANNELS 3 Zrotation Yrotation Xrotation
							JOINT LeftHand
							{
								OFFSET 0.249234 0.008986 -0.001171
								CHANNELS 3 Zrotation Yrotation Xrotation
								End Site
								{
									OFFSET 0.000000 0.000000 0.000000
								}
							}
						}
					}
				}
				JOINT RightShoulder
				{
					OFFSET -0.081759 0.118833 -0.038615
					CHANNELS 3 Zrotation Yrotation Xrotation
					JOINT RightArm
					{
						OFFSET -0.096012 0.032551 -0.009143
						CHANNELS 3 Zrotation Yrotation Xrotation
						JOINT RightForeArm
						{
							OFFSET -0.253742 -0.013329 -0.021401
							CHANNELS 3 Zrotation Yrotation Xrotation
							JOINT RightHand
							{
								OFFSET -0.255298 0.007772 -0.005559
								CHANNELS 3 Zrotation Yrotation Xrotation
								End Site
								{
									OFFSET 0.000000 0.000000 0.000000
								}
							}
						}
					}
				}
			}
		}
	}
}
MOTION
Frames: 7
Frame Time: 0.050000
0.000000 0.945709 0.000000 -1.834584 -5.329022 1.564746 6.610353 0.150837 4.317081 -2.021044 0.336105 -5.457435 4.868381 11.945574 11.440565 0.000000 0.000000 0.000000 -4.398532 0.123843 0.810880 4.834648 -0.437372 -2.460531 -4.502892 -14.400822 14.722247 0.000000 0.000000 0.000000 5.954324 -0.238686 1.834030 -5.515777 1.956115 -18.612814 -1.349933 7.220015 26.384462 8.195901 -1.874476 -30.102096 0.000000 0.000000 0.000000 -32.510496 -9.452325 2.610212 -39.924300 -4.130168 -4.702791 2.197654 -23.861311 0.510220 0.000000 0.000000 0.000000 38.103233 -0.795424 -1.470659 46.931141 4.770282 -5.465103 -3.633819 26.732541 0.673841 0.000000 0.000000 0.000000 
-0.000103 0.944620 0.000876 -2.089456 -5.336296 1.982447 7.365890 0.114516 4.265176 -2.870015 0.405157 -6.002430 4.881994 11.938348 11.224901 0.000000 0.000000 0.000000 -4.012352 0.144222 0.222151 4.649366 -0.424876 -2.074848 -4.593448 -14.502111 14.376761 0.000000 0.000000 0.000000 6.772373 -0.194112 1.119379 -6.370653 2.222178 -18.125867 -1.553668 7.671726 26.002896 8.598803 -1.909001 -30.696841 0.000000 0.000000 0.000000 -32.337703 -9.219293 2.225551 -40.388940 -4.041235 -4.696599 3.531618 -24.187710 0.231655 0.000000 0.000000 0.000000 37.325722 -2.277763 -2.341820 48.941909 3.657334 -6.079193 -3.364200 28.556099 0.879305 0.000000 0.000000 0.000000 
-0.000048 0.943882 0.001348 -2.005942 -4.791526 2.272814 7.413899 0.054736 3.037254 -3.011179 0.395091 -4.541180 4.782834 11.727808 10.563500 0.000000 0.000000 0.000000 -3.864618 0.144761 0.078072 4.309642 -0.406017 -2.214954 -4.918806 -14.978482 14.258125 0.000000 0.000000 0.000000 7.185058 -0.156857 0.612611 -6.970738 2.409517 -18.273687 -1.404544 6.706137 26.517330 8.357248 -1.962162 -30.299181 0.000000 0.000000 0.000000 -31.522901 -9.700513 2.933230 -41.088673 -4.753100 -4.704485 3.874059 -22.727672 0.176392 0.000000 0.000000 0.000000 36.498468 -1.483718 -1.963942 49.338473 3.454429 -6.125004 -3.375205 27.122993 0.779011 0.000000 0.000000 0.000000 
-0.000034 0.943957 0.001760 -2.074491 -4.871416 2.311304 7.610083 0.052730 3.114284 -3.247732 0.415736 -4.663678 4.799980 11.757393 10.618744 0.000000 0.000000 0.000000 -3.799757 0.156580 -0.135645 4.307462 -0.404590 -1.869906 -4.896429 -14.944503 14.214778 0.000000 0.000000 0.000000 7.512802 -0.151121 0.512458 -7.578296 2.583510 -18.453311 -1.324617 7.144720 26.853591 8.826884 -2.108924 -30.610635 0.000000 0.000000 0.000000 -31.811052 -10.555914 3.339816 -40.480964 -4.028276 -4.799580 3.848776 -23.714224 0.169075 0.000000 0.000000 0.000000 37.522911 -1.921201 -2.139875 49.059334 2.899316 -6.421833 -3.315051 28.165354 0.876306 0.000000 0.000000 0.000000 
-0.000088 0.944371 0.002106 -2.126621 -4.569509 2.150240 7.921527 0.031402 2.808655 -3.617568 0.439791 -3.873598 4.660419 11.531814 10.480109 0.000000 0.000000 0.000000 -3.726771 0.130598 0.163125 4.331692 -0.410209 -1.974627 -4.995416 -15.109369 14.426374 0.000000 0.000000 0.000000 7.138655 -0.161369 0.682965 -6.891413 2.406594 -17.895630 -1.629751 7.205428 26.298002 9.010400 -2.229964 -30.033608 0.000000 0.000000 0.000000 -31.642193 -10.233308 2.943662 -40.526966 -3.717690 -4.809983 3.074057 -24.315243 0.318452 0.000000 0.000000 0.000000 37.295308 -1.592371 -1.739260 49.084829 2.711627 -6.479886 -3.578599 27.303026 0.777104 0.000000 0.000000 0.000000 
-0.000122 0.944682 0.002449 -2.165557 -4.580772 2.133138 7.897682 0.036751 2.972841 -3.502364 0.430799 -4.083819 4.643622 11.521360 10.609015 0.000000 0.000000 0.000000 -3.944323 0.132518 0.276275 4.790466 -0.443923 -2.106218 -4.940278 -15.037698 14.590138 0.000000 0.000000 0.000000 6.947113 -0.163505 0.733798 -6.953791 2.420004 -18.033373 -1.497025 7.282588 26.532337 8.965457 -2.152956 -30.361477 0.000000 0.000000 0.000000 -31.171405 -10.259455 2.957336 -40.859420 -3.798351 -4.843485 2.340690 -24.420364 0.473000 0.000000 0.000000 0.000000 37.413104 -1.674393 -1.756283 48.937585 2.552009 -6.565487 -3.340569 27.184757 0.829602 0.000000 0.000000 0.000000 
-0.000208 0.944764 0.002722 -2.187371 -4.488002 1.955477 8.118674 0.030788 2.933612 -3.812892 0.455749 -3.667665 4.590224 11.428637 10.509445 0.000000 0.000000 0.000000 -3.913153 0.113295 0.524589 4.798669 -0.445950 -2.143229 -4.964992 -15.072996 14.626223 0.000000 0.000000 0.000000 6.810467 -0.176767 0.919012 -6.854019 2.401831 -17.815545 -1.598011 7.146724 26.368364 9.192414 -2.334784 -30.015775 0.000000 0.000000 0.000000 -31.117000 -9.998789 2.800372 -40.899887 -3.594887 -4.911247 1.947982 -24.831305 0.566696 0.000000 0.000000 0.000000 37.306794 -1.402080 -1.583801 48.943194 2.315986 -6.623639 -3.206996 27.545442 0.861075 0.000000 0.000000 0.000000 
